# xmcd
#
# Track frame offsets:
#	150
#	27555
#	47255
#	64080
#	91065
#	110595
#	132812
#	151415
#	169492
#
# Disc length: 2560 seconds
#
# Revision: 1
# Processed by: cddbd v1.5.2PL0 Copyright (c) Steve Scherf et al.
# Submitted via: Jack! The Knife 17 Overdose
#
DISCID=7009fe09
DTITLE=Michael Jackson - Thriller
DYEAR=1982
DGENRE=Pop
TTITLE0=Wanna Be Startin' Somethin'
TTITLE1=Baby Be Mine
TTITLE2=The Girl Is Mine
TTITLE3=Thriller
TTITLE4=Beat It
TTITLE5=Billie Jean
TTITLE6=Human Nature
TTITLE7=P.Y.T. (Pretty Young Thing)
TTITLE8=The Lady In My Life
EXTD=Quincy Jones
EXTT0=Michael Jackson
EXTT1=Rod Temperton
EXTT2=Michael Jackson
EXTT3=Rod Temperton
EXTT4=Michael Jackson
EXTT5=Michael Jackson
EXTT6=Bettis, Porcaro
EXTT7=Ingram, Jones
EXTT8=Rod Temperton
PLAYORDER=
